<svg width="47" height="15" viewBox="0 0 47 15" fill="none" xmlns="http://www.w3.org/2000/svg">
<path d="M5.94 14.108C4.08 14.108 2.712 13.634 1.836 12.686C0.972 11.738 0.54 10.49 0.54 8.942C0.54 7.382 0.804 5.966 1.332 4.694C1.872 3.41 2.67 2.36 3.726 1.544C4.782 0.715999 5.922 0.301999 7.146 0.301999C8.382 0.301999 9.348 0.601999 10.044 1.202C10.752 1.79 11.106 2.588 11.106 3.596C11.106 4.592 10.794 5.42 10.17 6.08C9.558 6.74 8.838 7.07 8.01 7.07C7.182 7.07 6.54 6.89 6.084 6.53C5.628 6.158 5.4 5.768 5.4 5.36C5.4 4.94 5.562 4.616 5.886 4.388C6.222 4.148 6.708 4.028 7.344 4.028C7.188 4.184 7.11 4.394 7.11 4.658C7.11 4.91 7.188 5.132 7.344 5.324C7.5 5.516 7.74 5.612 8.064 5.612C8.388 5.612 8.712 5.444 9.036 5.108C9.36 4.76 9.522 4.304 9.522 3.74C9.522 3.176 9.348 2.726 9 2.39C8.664 2.054 8.184 1.886 7.56 1.886C6.744 1.886 6 2.216 5.328 2.876C4.668 3.536 4.164 4.376 3.816 5.396C3.468 6.416 3.294 7.49 3.294 8.618C3.294 9.59 3.504 10.448 3.924 11.192C4.14 11.576 4.458 11.882 4.878 12.11C5.31 12.338 5.814 12.452 6.39 12.452C7.374 12.452 8.322 12.14 9.234 11.516C10.146 10.88 10.914 10.064 11.538 9.068L12.15 10.166C11.442 11.318 10.554 12.266 9.486 13.01C8.418 13.742 7.236 14.108 5.94 14.108ZM18.9575 14.09C17.8535 14.09 17.1215 13.706 16.7615 12.938C16.1375 13.718 15.3335 14.108 14.3495 14.108C13.3775 14.108 12.5555 13.778 11.8835 13.118C11.2235 12.458 10.8935 11.588 10.8935 10.508C10.8935 8.936 11.3555 7.682 12.2795 6.746C13.2035 5.81 14.3735 5.342 15.7895 5.342C15.8255 5.342 15.8615 5.342 15.8975 5.342C16.4975 5.342 17.0495 5.444 17.5535 5.648C17.8775 5.444 18.2675 5.342 18.7235 5.342C19.1915 5.342 19.5275 5.402 19.7315 5.522C19.6235 6.41 19.5095 7.286 19.3895 8.15C19.2695 9.002 19.1855 9.608 19.1375 9.968C19.0295 10.784 18.9755 11.372 18.9755 11.732C18.9755 12.212 19.1675 12.452 19.5515 12.452C19.8515 12.452 20.1695 12.254 20.5055 11.858C20.8415 11.45 21.1355 10.814 21.3875 9.95C21.7355 10.262 21.9755 10.61 22.1075 10.994C21.7595 12.134 21.2915 12.938 20.7035 13.406C20.1155 13.862 19.5335 14.09 18.9575 14.09ZM16.0595 6.746C15.2915 6.746 14.6795 7.04 14.2235 7.628C13.7795 8.204 13.5155 9.068 13.4315 10.22C13.4195 10.328 13.4135 10.43 13.4135 10.526C13.4135 11.114 13.5515 11.582 13.8275 11.93C14.1155 12.278 14.4815 12.452 14.9255 12.452C15.6815 12.452 16.2515 11.918 16.6355 10.85L17.0675 6.962C16.7195 6.818 16.3835 6.746 16.0595 6.746ZM28.9628 7.52C28.9628 8.768 28.2188 9.722 26.7308 10.382C26.7668 10.598 26.8208 10.856 26.8928 11.156C27.1088 12.044 27.4688 12.5 27.9728 12.524C28.0088 12.524 28.0448 12.524 28.0808 12.524C29.0408 12.524 29.7548 11.678 30.2228 9.986C30.4748 10.214 30.7148 10.556 30.9428 11.012C30.7748 11.66 30.5348 12.206 30.2228 12.65C29.9228 13.094 29.5928 13.412 29.2328 13.604C28.5968 13.94 27.9968 14.108 27.4328 14.108C26.1128 14.108 25.1888 13.37 24.6608 11.894C24.4568 11.306 24.3188 10.706 24.2468 10.094C24.9308 9.926 25.4708 9.65 25.8668 9.266C26.2628 8.87 26.4608 8.45 26.4608 8.006C26.4608 7.238 26.0768 6.854 25.3088 6.854C24.8888 6.854 24.5288 7.016 24.2288 7.34C23.9288 7.652 23.7308 8.03 23.6348 8.474C23.5628 9.086 23.4428 10.052 23.2748 11.372C23.1188 12.68 23.0168 13.556 22.9688 14H20.5748C21.4388 6.644 21.9608 2.126 22.1408 0.446C22.3928 0.349999 22.7348 0.301999 23.1668 0.301999C24.1028 0.301999 24.5708 0.577999 24.5708 1.13V1.238C24.3308 3.41 24.1088 5.072 23.9048 6.224C24.5648 5.612 25.3928 5.306 26.3888 5.306C27.1328 5.306 27.7448 5.498 28.2248 5.882C28.7168 6.266 28.9628 6.812 28.9628 7.52ZM33.0865 9.968C33.8305 9.812 34.3825 9.512 34.7425 9.068C35.1145 8.624 35.3005 8.198 35.3005 7.79C35.3005 7.37 35.1865 7.088 34.9585 6.944C34.7425 6.788 34.5025 6.71 34.2385 6.71C33.6745 6.71 33.1765 7.028 32.7445 7.664C32.3245 8.288 32.1145 9.038 32.1145 9.914C32.1145 10.778 32.3185 11.426 32.7265 11.858C33.1465 12.278 33.6625 12.488 34.2745 12.488C35.1745 12.488 36.0385 12.176 36.8665 11.552C37.6945 10.928 38.3665 10.112 38.8825 9.104C39.1465 9.356 39.3865 9.668 39.6025 10.04C39.2065 10.94 38.5045 11.822 37.4965 12.686C36.9925 13.106 36.3925 13.448 35.6965 13.712C35.0125 13.976 34.3045 14.108 33.5725 14.108C32.3725 14.108 31.4245 13.742 30.7285 13.01C29.9845 12.218 29.6125 11.204 29.6125 9.968C29.6125 8.732 30.0745 7.652 30.9985 6.728C31.9345 5.804 33.0505 5.342 34.3465 5.342C35.2705 5.342 36.0205 5.546 36.5965 5.954C37.1725 6.35 37.4665 6.89 37.4785 7.574C37.4785 8.498 37.1065 9.248 36.3625 9.824C35.6305 10.4 34.6225 10.802 33.3385 11.03L33.0865 9.968ZM45.0533 4.928C45.4133 4.388 45.5933 3.884 45.5933 3.416C45.5933 2.948 45.4613 2.576 45.1973 2.3C44.9333 2.024 44.5853 1.886 44.1533 1.886C43.7213 1.886 43.3733 1.994 43.1093 2.21C42.8453 2.414 42.7133 2.744 42.7133 3.2C42.7133 3.644 43.0253 4.448 43.6493 5.612C44.2733 6.776 44.6693 7.526 44.8373 7.862C45.2933 8.774 45.5213 9.656 45.5213 10.508C45.5213 11.576 45.1313 12.446 44.3513 13.118C43.5833 13.778 42.6713 14.108 41.6153 14.108C40.5713 14.108 39.7493 13.784 39.1493 13.136C38.5493 12.476 38.2493 11.708 38.2493 10.832C38.2493 9.212 39.2513 7.874 41.2553 6.818C40.4393 5.21 40.0313 4.088 40.0313 3.452C40.0313 2.564 40.3853 1.814 41.0933 1.202C41.8133 0.578 42.6893 0.266 43.7213 0.266C44.7653 0.266 45.5633 0.53 46.1153 1.058C46.6673 1.586 46.9433 2.258 46.9433 3.074C46.9433 3.614 46.7633 4.232 46.4033 4.928H45.0533ZM40.3373 11.948C40.6613 12.296 41.0513 12.47 41.5073 12.47C41.9753 12.47 42.3353 12.338 42.5873 12.074C42.8513 11.798 42.9833 11.396 42.9833 10.868C42.9833 10.388 42.7973 9.8 42.4253 9.104C42.3773 9.008 42.2873 8.834 42.1553 8.582C42.0233 8.318 41.9273 8.132 41.8673 8.024C40.5233 8.72 39.8513 9.596 39.8513 10.652C39.8513 11.192 40.0133 11.624 40.3373 11.948Z" fill="white"/>
</svg>
