<svg width="113" height="28" viewBox="0 0 113 28" fill="none" xmlns="http://www.w3.org/2000/svg">
<path d="M48.42 21.16C47.34 21.16 46.3467 20.9867 45.44 20.64C44.5333 20.28 43.7467 19.78 43.08 19.14C42.4133 18.4867 41.8933 17.7267 41.52 16.86C41.1467 15.9933 40.96 15.04 40.96 14C40.96 12.96 41.1467 12.0067 41.52 11.14C41.8933 10.2733 42.4133 9.52 43.08 8.88C43.76 8.22667 44.5533 7.72667 45.46 7.38C46.3667 7.02 47.3667 6.84 48.46 6.84C49.5667 6.84 50.58 7.02 51.5 7.38C52.42 7.74 53.2 8.28 53.84 9L52.6 10.24C52.0267 9.68 51.4 9.27333 50.72 9.02C50.0533 8.75333 49.3267 8.62 48.54 8.62C47.74 8.62 46.9933 8.75333 46.3 9.02C45.62 9.28667 45.0267 9.66 44.52 10.14C44.0267 10.62 43.64 11.1933 43.36 11.86C43.0933 12.5133 42.96 13.2267 42.96 14C42.96 14.76 43.0933 15.4733 43.36 16.14C43.64 16.7933 44.0267 17.3667 44.52 17.86C45.0267 18.34 45.62 18.7133 46.3 18.98C46.98 19.2467 47.72 19.38 48.52 19.38C49.2667 19.38 49.98 19.2667 50.66 19.04C51.3533 18.8 51.9933 18.4067 52.58 17.86L53.72 19.38C53.0267 19.9667 52.2133 20.4133 51.28 20.72C50.36 21.0133 49.4067 21.16 48.42 21.16ZM51.8 19.12V13.92H53.72V19.38L51.8 19.12ZM57.2692 21V10.4H59.1892V21H57.2692ZM58.2292 8.36C57.8559 8.36 57.5426 8.24 57.2892 8C57.0492 7.76 56.9292 7.46667 56.9292 7.12C56.9292 6.76 57.0492 6.46 57.2892 6.22C57.5426 5.98 57.8559 5.86 58.2292 5.86C58.6026 5.86 58.9092 5.98 59.1492 6.22C59.4026 6.44667 59.5292 6.73333 59.5292 7.08C59.5292 7.44 59.4092 7.74667 59.1692 8C58.9292 8.24 58.6159 8.36 58.2292 8.36ZM66.4952 21.12C65.4285 21.12 64.6018 20.8333 64.0152 20.26C63.4285 19.6867 63.1352 18.8667 63.1352 17.8V8.08H65.0552V17.72C65.0552 18.2933 65.1952 18.7333 65.4752 19.04C65.7685 19.3467 66.1818 19.5 66.7152 19.5C67.3152 19.5 67.8152 19.3333 68.2152 19L68.8152 20.38C68.5218 20.6333 68.1685 20.82 67.7552 20.94C67.3552 21.06 66.9352 21.12 66.4952 21.12ZM61.3352 11.98V10.4H68.0952V11.98H61.3352ZM81.4564 7H83.4564V21H81.4564V7ZM73.4164 21H71.4164V7H73.4164V21ZM81.6364 14.76H73.2164V13.02H81.6364V14.76ZM91.8269 21.12C90.9202 21.12 90.1202 20.9533 89.4269 20.62C88.7469 20.2867 88.2135 19.78 87.8269 19.1C87.4535 18.4067 87.2669 17.54 87.2669 16.5V10.4H89.1869V16.28C89.1869 17.32 89.4335 18.1 89.9269 18.62C90.4335 19.14 91.1402 19.4 92.0469 19.4C92.7135 19.4 93.2935 19.2667 93.7869 19C94.2802 18.72 94.6602 18.32 94.9269 17.8C95.1935 17.2667 95.3269 16.6267 95.3269 15.88V10.4H97.2469V21H95.4269V18.14L95.7269 18.9C95.3802 19.6067 94.8602 20.1533 94.1669 20.54C93.4735 20.9267 92.6935 21.12 91.8269 21.12ZM106.522 21.12C105.615 21.12 104.795 20.92 104.062 20.52C103.342 20.1067 102.769 19.5 102.342 18.7C101.929 17.9 101.722 16.9 101.722 15.7C101.722 14.5 101.935 13.5 102.362 12.7C102.802 11.9 103.382 11.3 104.102 10.9C104.835 10.5 105.642 10.3 106.522 10.3C107.562 10.3 108.482 10.5267 109.282 10.98C110.082 11.4333 110.715 12.0667 111.182 12.88C111.649 13.68 111.882 14.62 111.882 15.7C111.882 16.78 111.649 17.7267 111.182 18.54C110.715 19.3533 110.082 19.9867 109.282 20.44C108.482 20.8933 107.562 21.12 106.522 21.12ZM100.902 21V6.16H102.822V13.22L102.622 15.68L102.742 18.14V21H100.902ZM106.362 19.44C107.042 19.44 107.649 19.2867 108.182 18.98C108.729 18.6733 109.155 18.24 109.462 17.68C109.782 17.1067 109.942 16.4467 109.942 15.7C109.942 14.94 109.782 14.2867 109.462 13.74C109.155 13.18 108.729 12.7467 108.182 12.44C107.649 12.1333 107.042 11.98 106.362 11.98C105.695 11.98 105.089 12.1333 104.542 12.44C104.009 12.7467 103.582 13.18 103.262 13.74C102.955 14.2867 102.802 14.94 102.802 15.7C102.802 16.4467 102.955 17.1067 103.262 17.68C103.582 18.24 104.009 18.6733 104.542 18.98C105.089 19.2867 105.695 19.44 106.362 19.44Z" fill="white"/>
<g clip-path="url(#clip0_607_101)">
<path fill-rule="evenodd" clip-rule="evenodd" d="M13.9583 0C6.23971 0 0 6.41667 0 14.355C0 20.7005 3.998 26.0718 9.54429 27.9729C10.2377 28.1158 10.4917 27.664 10.4917 27.284C10.4917 26.9512 10.4689 25.8105 10.4689 24.6219C6.586 25.4777 5.77743 22.9107 5.77743 22.9107C5.15343 21.247 4.22886 20.8195 4.22886 20.8195C2.958 19.9401 4.32143 19.9401 4.32143 19.9401C5.73114 20.0352 6.47086 21.4136 6.47086 21.4136C7.71857 23.5999 9.72914 22.9822 10.538 22.6018C10.6534 21.6749 11.0234 21.0333 11.4163 20.6768C8.31943 20.344 5.06114 19.1083 5.06114 13.5943C5.06114 12.0257 5.61543 10.7424 6.49371 9.74429C6.35514 9.38788 5.86971 7.91408 6.63257 5.94154C6.63257 5.94154 7.81114 5.56121 10.4686 7.41504C11.6063 7.10082 12.7796 6.94097 13.9583 6.93963C15.1369 6.93963 16.3383 7.10617 17.4477 7.41504C20.1054 5.56121 21.284 5.94154 21.284 5.94154C22.0469 7.91408 21.5611 9.38788 21.4226 9.74429C22.324 10.7424 22.8554 12.0257 22.8554 13.5943C22.8554 19.1083 19.5971 20.3201 16.4771 20.6768C16.9857 21.1283 17.4246 21.9838 17.4246 23.3386C17.4246 25.2636 17.4017 26.8085 17.4017 27.2837C17.4017 27.664 17.656 28.1158 18.3491 27.9732C23.8954 26.0715 27.8934 20.7005 27.8934 14.355C27.9163 6.41667 21.6537 0 13.9583 0Z" fill="white"/>
</g>
<defs>
<clipPath id="clip0_607_101">
<rect width="28" height="28" fill="white"/>
</clipPath>
</defs>
</svg>
