<svg width="95" height="28" viewBox="0 0 95 28" fill="none" xmlns="http://www.w3.org/2000/svg">
<path d="M10.175 24.8976C6.67025 24.8976 4.0926 24.045 2.44199 22.3398C0.813997 20.6346 0 18.3899 0 15.6055C0 12.7995 0.497443 10.2526 1.49233 7.96463C2.50982 5.6551 4.01346 3.76647 6.00323 2.29873C7.993 0.809413 10.141 0.0647522 12.4474 0.0647522C14.7763 0.0647522 16.5965 0.604361 17.9079 1.68358C19.242 2.74121 19.909 4.17657 19.909 5.98966C19.909 7.78116 19.3211 9.27048 18.1453 10.4576C16.9922 11.6448 15.6355 12.2383 14.0754 12.2383C12.5152 12.2383 11.3055 11.9146 10.4463 11.267C9.58707 10.5979 9.15746 9.89643 9.15746 9.16256C9.15746 8.40711 9.46271 7.82433 10.0732 7.41423C10.7063 6.98254 11.6221 6.7667 12.8204 6.7667C12.5265 7.04729 12.3795 7.42502 12.3795 7.89987C12.3795 8.35315 12.5265 8.75246 12.8204 9.09781C13.1144 9.44316 13.5666 9.61583 14.1771 9.61583C14.7876 9.61583 15.3981 9.31365 16.0086 8.70929C16.6191 8.08334 16.9243 7.26314 16.9243 6.24867C16.9243 5.23421 16.5965 4.42479 15.9408 3.82043C15.3077 3.21607 14.4032 2.91389 13.2274 2.91389C11.6899 2.91389 10.288 3.50746 9.0218 4.6946C7.77819 5.88174 6.82853 7.39264 6.17281 9.22731C5.51709 11.062 5.18923 12.9938 5.18923 15.0227C5.18923 16.771 5.58492 18.3143 6.37631 19.6526C6.78331 20.3433 7.3825 20.8937 8.17388 21.3038C8.98788 21.7139 9.93754 21.9189 11.0229 21.9189C12.877 21.9189 14.6632 21.3577 16.3817 20.2353C18.1001 19.0914 19.5472 17.6236 20.723 15.8321L21.2996 16.8196L21.8762 17.8071C20.5421 19.8792 18.8689 21.5844 16.8565 22.9226C14.8441 24.2392 12.617 24.8976 10.175 24.8976Z" fill="white"/>
<path d="M88.5219 25.4384C88.1766 25.5443 87.8002 25.3812 87.658 25.0603L87.6372 25.0142C86.642 22.8236 85.9928 21.3903 86.6013 20.2169C86.8689 19.7032 87.3868 19.324 87.9806 19.2257C89.0928 19.041 89.6516 20.0776 89.9169 20.9556C90.784 20.5684 92.3241 20.4377 92.9091 21.3616C93.2225 21.853 93.2643 22.4749 93.0353 23.0053C92.5136 24.2164 90.9528 24.6918 88.5672 25.4247L88.5219 25.4384Z" fill="#F00037"/>
<path fill-rule="evenodd" clip-rule="evenodd" d="M49.3501 18.1956C52.1539 17.0085 53.5558 15.2925 53.5558 13.0477C53.5558 11.7743 53.0923 10.7922 52.1652 10.1015C51.2608 9.41078 50.1076 9.06543 48.7057 9.06543C46.829 9.06543 45.2689 9.61583 44.0253 10.7166C44.4096 8.64454 44.8279 5.6551 45.2802 1.74833V1.55407C45.2802 0.561192 44.3983 0.0647522 42.6347 0.0647522C41.8207 0.0647522 41.1763 0.15109 40.7014 0.323765C40.407 2.94726 39.6268 9.41843 38.3609 19.7373C38.1273 20.1777 37.8804 20.5487 37.6201 20.8505C36.9869 21.5628 36.3878 21.9189 35.8225 21.9189C35.0989 21.9189 34.7372 21.4872 34.7372 20.6239C34.7372 19.9763 34.8389 18.9187 35.0424 17.451C35.1328 16.8034 35.2911 15.7134 35.5172 14.1809C35.7433 12.6269 35.9581 11.0512 36.1616 9.45395C35.7773 9.23811 35.1442 9.13018 34.2623 9.13018C33.4031 9.13018 32.6682 9.31365 32.0577 9.68058C31.1081 9.31365 30.068 9.13018 28.9374 9.13018H28.7339C26.0658 9.13018 23.8613 9.97197 22.1202 11.6556C20.3792 13.3391 19.5086 15.5947 19.5086 18.4223C19.5086 20.3648 20.1304 21.9297 21.374 23.1168C22.6403 24.304 24.1891 24.8976 26.0206 24.8976C27.8747 24.8976 29.3896 24.1961 30.5654 22.7931C31.2437 24.1745 32.623 24.8652 34.7032 24.8652C35.7487 24.8652 36.8047 24.4846 37.8712 23.7235L37.7507 24.7033H42.2616C42.352 23.9047 42.5442 22.329 42.8382 19.9763C43.1547 17.602 43.3808 15.8645 43.5165 14.7637C43.6974 13.9651 44.0705 13.2852 44.6357 12.724C45.201 12.1412 45.8793 11.8498 46.6707 11.8498C48.1178 11.8498 48.8414 12.5405 48.8414 13.9219C48.8414 14.7205 48.4683 15.476 47.7222 16.1883C46.976 16.879 45.9585 17.3754 44.6697 17.6776C44.8053 18.7784 45.0654 19.8576 45.4497 20.9152C46.4446 23.5701 48.1857 24.8976 50.6729 24.8976C51.7356 24.8976 52.8662 24.5954 54.0645 23.991C54.7429 23.6457 55.3647 23.0737 55.93 22.2751C56.5178 21.4764 56.9701 20.4944 57.2866 19.3288C56.857 18.5086 56.4048 17.8934 55.93 17.4833C55.0481 20.5267 53.7028 22.0484 51.8939 22.0484H51.6904C50.7407 22.0053 50.0624 21.1851 49.6554 19.5878C49.5197 19.0482 49.418 18.5841 49.3501 18.1956ZM37.8712 23.7235C37.9118 23.6945 37.9525 23.665 37.9931 23.6349C39.1011 22.7931 39.9829 21.3469 40.6386 19.2964C40.3899 18.6057 39.9377 17.9798 39.282 17.4186C39.0024 18.3337 38.6953 19.1066 38.3609 19.7373C38.205 21.0077 38.0418 22.3364 37.8712 23.7235ZM25.7832 13.242C26.6424 12.1844 27.7956 11.6556 29.2427 11.6556C29.8532 11.6556 30.4863 11.7851 31.142 12.0441L30.328 19.0374C29.6045 20.9584 28.5304 21.9189 27.1059 21.9189C26.2693 21.9189 25.5797 21.6059 25.037 20.98C24.517 20.3541 24.2569 19.5123 24.2569 18.4546C24.2569 18.282 24.2683 18.0985 24.2909 17.9042C24.4491 15.8321 24.9466 14.2781 25.7832 13.242Z" fill="white"/>
<path d="M40.6386 19.2964C40.3899 18.6057 39.9377 17.9798 39.282 17.4186C39.0024 18.3337 38.6953 19.1066 38.3609 19.7373C38.205 21.0077 38.0418 22.3364 37.8712 23.7235C37.9118 23.6945 37.9525 23.665 37.9931 23.6349C39.1011 22.7931 39.9829 21.3469 40.6386 19.2964Z" fill="white"/>
<path fill-rule="evenodd" clip-rule="evenodd" d="M84.8918 5.6659C84.8918 6.50768 84.5526 7.41423 83.8743 8.38552H86.418C87.0963 7.13363 87.4355 6.02204 87.4355 5.05074C87.4355 3.583 86.9154 2.37428 85.8753 1.42457C84.8352 0.474856 83.3316 0 81.3644 0C79.4199 0 77.7693 0.561193 76.4126 1.68358C75.0786 2.78438 74.4115 4.1334 74.4115 5.73065C74.4115 6.87462 75.1803 8.89276 76.7179 11.7851C73.5998 13.3535 71.7692 15.2678 71.2258 17.5279C70.4362 18.612 69.5104 19.5361 68.4483 20.3001C66.8882 21.4225 65.2602 21.9837 63.5644 21.9837C62.4112 21.9837 61.4389 21.6059 60.6475 20.8505C59.8788 20.0735 59.4944 18.9079 59.4944 17.3538C59.4944 15.7782 59.8901 14.4291 60.6814 13.3068C61.4954 12.1628 62.4338 11.5908 63.4965 11.5908C63.994 11.5908 64.4462 11.7311 64.8532 12.0117C65.2828 12.2707 65.4976 12.7779 65.4976 13.5334C65.4976 14.2673 65.1471 15.0335 64.4462 15.8321C63.7678 16.6308 62.7277 17.1704 61.3259 17.451L61.8007 19.3612C64.2201 18.9511 66.1194 18.228 67.4987 17.1919C68.9006 16.1559 69.6015 14.8069 69.6015 13.1449C69.5789 11.9146 69.0249 10.9433 67.9396 10.231C66.8543 9.49712 65.4411 9.13018 63.7 9.13018C61.258 9.13018 59.1552 9.96118 57.3915 11.6232C55.6505 13.2852 54.78 15.2278 54.78 17.451C54.78 19.6741 55.4809 21.498 56.8828 22.9226C58.1942 24.2392 59.9805 24.8976 62.2416 24.8976C63.6209 24.8976 64.9549 24.6601 66.2438 24.1853C67.5552 23.7104 68.6857 23.0953 69.6354 22.3398C70.2603 21.8285 70.8228 21.3137 71.3229 20.7954C71.5938 21.6503 72.0694 22.4349 72.7496 23.1492C73.8802 24.3148 75.429 24.8976 77.3962 24.8976C79.386 24.8976 81.1044 24.304 82.5515 23.1168C84.0212 21.9081 84.7561 20.3433 84.7561 18.4223C84.7561 16.8898 84.3265 15.3033 83.4673 13.6629C83.1507 13.0585 82.4045 11.7095 81.2288 9.61583C80.053 7.52215 79.4651 6.076 79.4651 5.27738C79.4651 4.45717 79.7138 3.8636 80.2113 3.49667C80.7087 3.10815 81.3644 2.91389 82.1784 2.91389C82.9924 2.91389 83.6482 3.16211 84.1456 3.65855C84.643 4.15499 84.8918 4.8241 84.8918 5.6659ZM71.3229 20.7954C72.3427 19.7383 73.103 18.6667 73.6036 17.5805C73.1966 16.9113 72.7444 16.3502 72.247 15.8969C71.9366 16.4758 71.5962 17.0194 71.2258 17.5279C71.1111 18.0049 71.0538 18.4972 71.0538 19.005C71.0538 19.6326 71.1435 20.2294 71.3229 20.7954ZM77.1927 21.9513C76.3335 21.9513 75.5986 21.6383 74.9881 21.0124C74.3776 20.4296 74.0724 19.6526 74.0724 18.6813C74.0724 16.7818 75.3386 15.2062 77.871 13.9543C77.9841 14.1485 78.165 14.4831 78.4137 14.958C78.6624 15.4112 78.832 15.7242 78.9224 15.8969C79.6234 17.1488 79.9739 18.2064 79.9739 19.0698C79.9739 20.0195 79.7251 20.7426 79.2277 21.239C78.7529 21.7139 78.0745 21.9513 77.1927 21.9513Z" fill="white"/>
<path d="M73.6036 17.5805C73.1966 16.9113 72.7444 16.3502 72.247 15.8969C71.9366 16.4758 71.5962 17.0194 71.2258 17.5279C71.1111 18.0049 71.0538 18.4972 71.0538 19.005C71.0538 19.6326 71.1435 20.2294 71.3229 20.7954C72.3427 19.7383 73.103 18.6667 73.6036 17.5805Z" fill="white"/>
</svg>
